<svg xmlns="http://www.w3.org/2000/svg" version="1.1" xmlns:xlink="http://www.w3.org/1999/xlink" xmlns:svgjs="http://svgjs.dev/svgjs" width="1500" height="367" viewBox="0 0 1500 367"><g transform="matrix(1,0,0,1,-0.9090909090909918,-0.7591387324509355)"><svg viewBox="0 0 396 97" data-background-color="#738ffe" preserveAspectRatio="xMidYMid meet" height="367" width="1500" xmlns="http://www.w3.org/2000/svg" xmlns:xlink="http://www.w3.org/1999/xlink"><g id="tight-bounds" transform="matrix(1,0,0,1,0.2400000000000091,0.2006442971328113)"><svg viewBox="0 0 395.52 96.54856118431763" height="96.54856118431763" width="395.52"><g><svg viewBox="0 0 538.939503663614 131.5580340921122" height="96.54856118431763" width="395.52"><g transform="matrix(1,0,0,1,143.41950366361402,40.65334208575965)"><svg viewBox="0 0 395.52 50.2513499205929" height="50.2513499205929" width="395.52"><g id="textblocktransform"><svg viewBox="0 0 395.52 50.2513499205929" height="50.2513499205929" width="395.52" id="textblock"><g><svg viewBox="0 0 395.52 50.2513499205929" height="50.2513499205929" width="395.52"><g transform="matrix(1,0,0,1,0,0)"><svg width="395.52" viewBox="3.25 -35.5 283.32 36" height="50.2513499205929" data-palette-color="#dfd5cb"><path d="M7.95-23.2L7.95 0 3.25 0 3.25-23Q3.25-28.9 6.43-32.2 9.6-35.5 14.85-35.5L14.85-35.5Q20.45-35.5 23.53-32.3 26.6-29.1 26.6-24.15L26.6-24.15Q26.6-21.05 25.48-18.75 24.35-16.45 22.45-15.2 20.55-13.95 18.4-13.35 16.25-12.75 13.9-12.75L13.9-12.75 10.15-12.75 10.15-17.15 14.45-17.15Q17.8-17.15 19.73-19.18 21.65-21.2 21.65-24.25L21.65-24.25Q21.65-27.25 19.88-29.18 18.1-31.1 14.8-31.1L14.8-31.1Q11.6-31.1 9.78-28.93 7.95-26.75 7.95-23.2L7.95-23.2ZM37.85-24L37.85 0 33.45 0 33.45-19.8 29.35-19.8 31.35-24 37.85-24ZM33.25-29L33.25-29Q32.6-29.85 32.6-30.85 32.6-31.85 33.25-32.68 33.9-33.5 35.25-33.5 36.6-33.5 37.25-32.68 37.9-31.85 37.9-30.85 37.9-29.85 37.25-29.03 36.6-28.2 35.25-28.2 33.9-28.2 33.25-29ZM60.95-5.25L60.95-5.25 63.95-2.3Q60.5 0.5 56.05 0.5L56.05 0.5Q50.5 0.5 47.15-3.08 43.8-6.65 43.8-12L43.8-12Q43.8-17.25 47.32-20.88 50.84-24.5 56.05-24.5L56.05-24.5Q60.5-24.5 63.95-21.7L63.95-21.7 61-18.7Q58.9-20.3 56.05-20.3L56.05-20.3Q52.59-20.3 50.57-18.03 48.55-15.75 48.55-12 48.55-8.25 50.57-5.98 52.59-3.7 56.05-3.7L56.05-3.7Q58.95-3.7 60.95-5.25ZM81.54-14.1L81.54-14.1 81.54-9.6Q79.64-11.05 76.89-11.05L76.89-11.05Q74.54-11.05 73.24-10.13 71.94-9.2 71.94-7.5L71.94-7.5Q71.94-4.2 76.84-4.2L76.84-4.2 83.44-4.2 83.44-13.75Q83.44-19.8 77.54-19.8L77.54-19.8 69.54-19.8 69.54-24 77.79-24Q82.64-24 85.24-21.6 87.84-19.2 87.84-14.7L87.84-14.7 87.84 0 76.69 0Q72.44 0 69.94-1.9 67.44-3.8 67.44-7.45 67.44-11.1 70.09-13 72.74-14.9 76.74-14.9L76.74-14.9Q78.99-14.9 81.54-14.1ZM101.14-24L109.99-24 109.99-19.8 101.14-19.8Q99.69-19.8 98.64-19.25 97.59-18.7 97.59-17.7L97.59-17.7Q97.59-17.1 97.84-16.63 98.09-16.15 98.42-15.85 98.74-15.55 99.42-15.23 100.09-14.9 100.47-14.78 100.84-14.65 103.64-13.75 106.44-12.85 107.79-12.25 109.14-11.65 109.87-10.63 110.59-9.6 110.79-8.63 110.99-7.65 110.99-6.7L110.99-6.7Q110.99 0 101.79 0L101.79 0 93.14 0 93.14-4.2 101.79-4.2Q106.49-4.2 106.49-6.7L106.49-6.7Q106.49-7.9 105.12-8.7 103.74-9.5 101.77-10.05 99.79-10.6 97.82-11.33 95.84-12.05 94.47-13.68 93.09-15.3 93.09-17.7L93.09-17.7Q93.09-20.75 95.44-22.38 97.79-24 101.14-24L101.14-24ZM123.79-24L132.64-24 132.64-19.8 123.79-19.8Q122.34-19.8 121.29-19.25 120.24-18.7 120.24-17.7L120.24-17.7Q120.24-17.1 120.49-16.63 120.74-16.15 121.06-15.85 121.39-15.55 122.06-15.23 122.74-14.9 123.11-14.78 123.49-14.65 126.29-13.75 129.09-12.85 130.44-12.25 131.79-11.65 132.51-10.63 133.24-9.6 133.44-8.63 133.64-7.65 133.64-6.7L133.64-6.7Q133.64 0 124.44 0L124.44 0 115.79 0 115.79-4.2 124.44-4.2Q129.14-4.2 129.14-6.7L129.14-6.7Q129.14-7.9 127.76-8.7 126.39-9.5 124.41-10.05 122.44-10.6 120.46-11.33 118.49-12.05 117.11-13.68 115.74-15.3 115.74-17.7L115.74-17.7Q115.74-20.75 118.09-22.38 120.44-24 123.79-24L123.79-24ZM141.39-20.85L141.39-20.85Q144.89-24.5 150.14-24.5L150.14-24.5Q152.69-24.5 154.91-23.53 157.14-22.55 158.81-20.85 160.49-19.15 161.44-16.88 162.39-14.6 162.39-12L162.39-12Q162.39-9.4 161.46-7.13 160.54-4.85 158.89-3.15 157.24-1.45 154.99-0.48 152.74 0.5 150.14 0.5L150.14 0.5Q147.49 0.5 145.26-0.48 143.04-1.45 141.39-3.15 139.74-4.85 138.81-7.13 137.89-9.4 137.89-12L137.89-12Q137.89-17.3 141.39-20.85ZM150.14-20.3L150.14-20.3Q146.64-20.3 144.51-18 142.39-15.7 142.39-12 142.39-8.3 144.51-6 146.64-3.7 150.14-3.7L150.14-3.7Q153.69-3.7 155.79-6.03 157.89-8.35 157.89-12 157.89-15.65 155.79-17.98 153.69-20.3 150.14-20.3ZM172.58-23.2L172.58 0 167.88 0 167.88-23Q167.88-28.9 171.06-32.2 174.23-35.5 179.48-35.5L179.48-35.5Q185.08-35.5 188.16-32.3 191.23-29.1 191.23-24.15L191.23-24.15Q191.23-21.05 190.11-18.75 188.98-16.45 187.08-15.2 185.18-13.95 183.03-13.35 180.88-12.75 178.53-12.75L178.53-12.75 174.78-12.75 174.78-17.15 179.08-17.15Q182.43-17.15 184.36-19.18 186.28-21.2 186.28-24.25L186.28-24.25Q186.28-27.25 184.51-29.18 182.73-31.1 179.43-31.1L179.43-31.1Q176.23-31.1 174.41-28.93 172.58-26.75 172.58-23.2L172.58-23.2ZM209.33-14.1L209.33-14.1 209.33-9.6Q207.43-11.05 204.68-11.05L204.68-11.05Q202.33-11.05 201.03-10.13 199.73-9.2 199.73-7.5L199.73-7.5Q199.73-4.2 204.63-4.2L204.63-4.2 211.23-4.2 211.23-13.75Q211.23-19.8 205.33-19.8L205.33-19.8 197.33-19.8 197.33-24 205.58-24Q210.43-24 213.03-21.6 215.63-19.2 215.63-14.7L215.63-14.7 215.63 0 204.48 0Q200.23 0 197.73-1.9 195.23-3.8 195.23-7.45 195.23-11.1 197.88-13 200.53-14.9 204.53-14.9L204.53-14.9Q206.78-14.9 209.33-14.1ZM221.13-9.5L221.13-9.5 221.13-35 225.63-35 225.63-9.5Q225.63-7.7 226.05-6.58 226.48-5.45 227.38-4.98 228.28-4.5 229.13-4.35 229.98-4.2 231.38-4.2L231.38-4.2 231.38 0Q225.78 0 223.45-2.15 221.13-4.3 221.13-9.5ZM234.63-9.5L234.63-9.5 234.63-35 239.13-35 239.13-9.5Q239.13-7.7 239.55-6.58 239.98-5.45 240.88-4.98 241.78-4.5 242.63-4.35 243.48-4.2 244.88-4.2L244.88-4.2 244.88 0Q239.28 0 236.95-2.15 234.63-4.3 234.63-9.5ZM259.87-24.5L259.87-24.5Q268.37-24.15 268.37-17.45L268.37-17.45Q268.37-9.1 257.42-9.1L257.42-9.1 255.37-9.1 255.37-12.95 257.77-12.95Q261.12-12.95 262.42-13.98 263.72-15 263.72-17.4L263.72-17.4Q263.72-18.95 262.57-19.73 261.42-20.5 259.62-20.5L259.62-20.5Q256.07-20.5 254.05-18 252.02-15.5 252.02-12L252.02-12Q252.02-8.3 254.2-6 256.37-3.7 259.87-3.7L259.87-3.7Q263.02-3.7 265.02-5.25L265.02-5.25 268.02-2.3Q264.57 0.5 259.87 0.5L259.87 0.5Q254.17 0.5 250.77-2.85 247.37-6.2 247.37-11.5L247.37-11.5Q247.37-17.4 250.72-21.05 254.07-24.7 259.87-24.5ZM275.32-19.8L270.87-19.8 279.82-28.75 279.82-24 286.57-24 286.57-19.8 279.82-19.8 279.82-9.5Q279.82-7.75 280.4-6.6 280.97-5.45 282.07-4.98 283.17-4.5 284.15-4.35 285.12-4.2 286.57-4.2L286.57-4.2 286.57 0Q280.82 0 278.07-2.2 275.32-4.4 275.32-9.5L275.32-9.5 275.32-19.8Z" opacity="1" transform="matrix(1,0,0,1,0,0)" fill=" #eab308" class="wordmark-text-0" data-fill-palette-color="primary" id="text-0"></path></svg></g></svg></g></svg></g></svg></g><g><svg viewBox="0 0 131.55636597976013 131.5580340921122" height="131.5580340921122" width="131.55636597976013"><g><svg xmlns="http://www.w3.org/2000/svg" xmlns:xlink="http://www.w3.org/1999/xlink" version="1.1" x="0" y="0" viewBox="11.047 11.73 78.88900000000001 78.89000029910649" enable-background="new 0 0 100 100" xml:space="preserve" height="131.5580340921122" width="131.55636597976013" class="icon-icon-0" data-fill-palette-color="accent" id="icon-0"><g fill="#eab308" data-fill-palette-color="accent"><path d="M75.398 37.052L72.696 37.788C73.751 41.658 73.236 44.885 71.121 47.655 67.97 51.78 61.095 54.729 51.869 56.12 61.722 52.757 67.047 46.801 67.047 38.82H64.247C64.247 47.831 56.332 52.259 47.878 54.418 50.884 51.238 52.548 47.217 53.976 43.766 56.235 38.307 57.594 35.488 61.249 36.006L61.645 33.233C55.661 32.387 53.487 37.622 51.388 42.694 49.811 46.505 48.063 50.705 44.665 53.597 46.107 50.415 46.805 46.689 47.48 43.026 48.33 38.412 49.133 34.053 51.34 31.294 56.08 25.365 61.887 28.677 62.126 28.819L63.567 26.418C60.784 24.747 54.187 23.25 49.153 29.543 46.506 32.852 45.601 37.765 44.726 42.518 43.649 48.364 42.536 54.41 38.269 57.253L34.422 59.818H39.046C46.955 59.818 66.131 58.798 73.345 49.352 75.99 45.893 76.681 41.754 75.398 37.052" fill="#eab308" data-fill-palette-color="accent"></path><polygon points="80.807,16.63 71.383,26.054 69.312,23.984 78.736,14.559 75.907,11.73 66.483,21.154 66.483,21.154 63.923,23.714    77.952,37.743 79.677,36.019 80.512,35.184 89.936,25.759  " fill="#eab308" data-fill-palette-color="accent"></polygon><path d="M66.354 59.438C65.434 59.355 64.157 59.52 62.847 59.82 42.666 64.438 29.247 61.22 29.247 61.22S40.447 52.82 41.847 43.02C42.067 41.48 42.025 40.244 41.831 39.208 41.666 35.101 38.294 31.82 34.147 31.82A7.69 7.69 0 0 0 27.313 35.981 7.66 7.66 0 0 0 22.947 34.62 7.7 7.7 0 0 0 15.247 42.32 7.69 7.69 0 0 0 18.738 48.763L19.936 50.931C15.667 51.682 11.047 56.035 11.047 60.52 11.047 62.814 11.903 64.904 13.304 66.505A7 7 0 0 0 18.666 78.001C18.783 78.001 18.898 77.989 19.014 77.983A9.5 9.5 0 0 0 18.666 80.501 9.5 9.5 0 0 0 28.166 90.001 9.46 9.46 0 0 0 34.638 87.442 9.76 9.76 0 0 0 41.847 90.62C46.349 90.62 50.132 87.581 51.281 83.446A9.07 9.07 0 0 0 59.826 80.576 11.14 11.14 0 0 0 65.647 82.221C71.833 82.221 76.847 77.207 76.847 71.021 76.847 64.833 73.292 60.063 66.354 59.438" fill="#eab308" data-fill-palette-color="accent"></path></g></svg></g></svg></g></svg></g><defs></defs></svg><rect width="395.52" height="96.54856118431763" fill="none" stroke="none" visibility="hidden"></rect></g></svg></g></svg>